<svg width="647" height="150" viewBox="0 0 647 150" fill="none" xmlns="http://www.w3.org/2000/svg">
<path d="M37.4 148.399C34.6 148.399 31.5334 148.333 28.2001 148.199C25.0001 148.066 21.7334 147.866 18.4 147.599C15.2001 147.333 12.0001 146.999 8.80005 146.599C5.60005 146.199 2.66672 145.666 4.94123e-05 144.999V10.5992C2.66672 9.93255 5.60005 9.39921 8.80005 8.99921C12.0001 8.59922 15.2001 8.26588 18.4 7.99921C21.7334 7.73255 25.0001 7.53255 28.2001 7.39921C31.4001 7.26588 34.4001 7.19921 37.2001 7.19921C45.2001 7.19921 52.6667 7.79921 59.6 8.99921C66.6667 10.1992 72.7334 12.2659 77.8001 15.1992C83.0001 17.9992 87.0667 21.7325 90.0001 26.3992C92.9334 31.0659 94.4001 36.7992 94.4001 43.5992C94.4001 51.1992 92.6001 57.4659 89.0001 62.3992C85.4001 67.1992 80.6001 70.7992 74.6001 73.1992C82.7334 75.5992 89.2001 79.3992 94.0001 84.5992C98.8001 89.7992 101.2 97.1325 101.2 106.599C101.2 120.466 96.0667 130.933 85.8001 137.999C75.6667 144.933 59.5334 148.399 37.4 148.399ZM19.2001 82.5992V131.399C20.6667 131.533 22.4 131.666 24.4 131.799C26.1334 131.933 28.1334 132.066 30.4 132.199C32.8001 132.199 35.5334 132.199 38.6001 132.199C44.3334 132.199 49.7334 131.866 54.8001 131.199C60.0001 130.399 64.5334 129.066 68.4001 127.199C72.2667 125.333 75.3334 122.733 77.6001 119.399C80.0001 116.066 81.2001 111.866 81.2001 106.799C81.2001 102.266 80.3334 98.4659 78.6001 95.3992C76.8667 92.1992 74.3334 89.6659 71.0001 87.7992C67.8001 85.9325 63.9334 84.5992 59.4001 83.7992C54.8667 82.9992 49.8001 82.5992 44.2001 82.5992H19.2001ZM19.2001 66.9992H39.6001C44.4001 66.9992 48.9334 66.6659 53.2001 65.9992C57.4667 65.3325 61.1334 64.1325 64.2 62.3992C67.4001 60.6659 69.8667 58.3992 71.6001 55.5992C73.4667 52.7992 74.4001 49.2659 74.4001 44.9992C74.4001 40.9992 73.4667 37.6659 71.6001 34.9992C69.7334 32.1992 67.1334 29.9992 63.8001 28.3992C60.6001 26.6659 56.8001 25.3992 52.4001 24.5992C48.0001 23.7992 43.3334 23.3992 38.4001 23.3992C33.4667 23.3992 29.6001 23.4659 26.8001 23.5992C24.0001 23.7325 21.4667 23.9325 19.2001 24.1992V66.9992ZM210.116 144.199C205.849 145.266 200.182 146.399 193.116 147.599C186.182 148.799 178.116 149.399 168.916 149.399C160.916 149.399 154.182 148.266 148.716 145.999C143.249 143.599 138.849 140.266 135.516 135.999C132.182 131.733 129.782 126.733 128.316 120.999C126.849 115.133 126.116 108.666 126.116 101.599V43.1992H144.716V97.5992C144.716 110.266 146.716 119.333 150.716 124.799C154.716 130.266 161.449 132.999 170.916 132.999C172.916 132.999 174.982 132.933 177.116 132.799C179.249 132.666 181.249 132.533 183.116 132.399C184.982 132.133 186.649 131.933 188.116 131.799C189.716 131.533 190.849 131.266 191.516 130.999V43.1992H210.116V144.199ZM419.894 46.1992C424.16 45.1326 429.827 43.9992 436.894 42.7992C443.96 41.5992 452.094 40.9992 461.294 40.9992C469.56 40.9992 476.427 42.1992 481.894 44.5992C487.36 46.8659 491.694 50.1325 494.894 54.3992C498.227 58.5325 500.56 63.5325 501.894 69.3992C503.227 75.2659 503.894 81.7325 503.894 88.7992V147.199H485.294V92.7992C485.294 86.3992 484.827 80.9325 483.894 76.3992C483.094 71.8659 481.694 68.1992 479.694 65.3992C477.694 62.5992 475.027 60.5992 471.694 59.3992C468.36 58.0659 464.227 57.3992 459.294 57.3992C457.294 57.3992 455.227 57.4659 453.094 57.5992C450.96 57.7325 448.894 57.9325 446.894 58.1992C445.027 58.3325 443.294 58.5325 441.694 58.7992C440.227 59.0659 439.16 59.2659 438.494 59.3992V147.199H419.894V46.1992ZM553.338 147.199H534.738V43.1992H553.338V147.199ZM543.938 24.3992C540.604 24.3992 537.738 23.3325 535.338 21.1992C533.071 18.9325 531.938 15.9325 531.938 12.1992C531.938 8.46588 533.071 5.53255 535.338 3.39921C537.738 1.13254 540.604 -0.000793457 543.938 -0.000793457C547.271 -0.000793457 550.071 1.13254 552.338 3.39921C554.738 5.53255 555.938 8.46588 555.938 12.1992C555.938 15.9325 554.738 18.9325 552.338 21.1992C550.071 23.3325 547.271 24.3992 543.938 24.3992ZM602.723 43.1992H642.123V58.7992H602.723V106.799C602.723 111.999 603.123 116.333 603.923 119.799C604.723 123.133 605.923 125.799 607.523 127.799C609.123 129.666 611.123 130.999 613.523 131.799C615.923 132.599 618.723 132.999 621.923 132.999C627.523 132.999 631.99 132.399 635.323 131.199C638.79 129.866 641.19 128.933 642.523 128.399L646.123 143.799C644.257 144.733 640.99 145.866 636.323 147.199C631.657 148.666 626.323 149.399 620.323 149.399C613.257 149.399 607.39 148.533 602.723 146.799C598.19 144.933 594.523 142.199 591.723 138.599C588.923 134.999 586.923 130.599 585.723 125.399C584.657 120.066 584.123 113.933 584.123 106.999V14.1992L602.723 10.9992V43.1992Z" fill="black"/>
<path d="M239.159 15.7992L268.959 10.9992V41.9992H304.759V66.7992H268.959V103.799C268.959 110.066 270.026 115.066 272.159 118.799C274.426 122.533 278.893 124.399 285.559 124.399C288.759 124.399 292.026 124.133 295.359 123.599C298.826 122.933 301.959 122.066 304.759 120.999L308.959 144.199C305.359 145.666 301.359 146.933 296.959 147.999C292.559 149.066 287.159 149.599 280.759 149.599C272.626 149.599 265.893 148.533 260.559 146.399C255.226 144.133 250.959 141.066 247.759 137.199C244.559 133.199 242.293 128.399 240.959 122.799C239.759 117.199 239.159 110.999 239.159 104.199V15.7992ZM328.027 15.7992L357.827 10.9992V41.9992H393.627V66.7992H357.827V103.799C357.827 110.066 358.893 115.066 361.027 118.799C363.293 122.533 367.76 124.399 374.427 124.399C377.627 124.399 380.893 124.133 384.227 123.599C387.693 122.933 390.827 122.066 393.627 120.999L397.827 144.199C394.227 145.666 390.227 146.933 385.827 147.999C381.427 149.066 376.027 149.599 369.627 149.599C361.493 149.599 354.76 148.533 349.427 146.399C344.093 144.133 339.827 141.066 336.627 137.199C333.427 133.199 331.16 128.399 329.827 122.799C328.627 117.199 328.027 110.999 328.027 104.199V15.7992Z" fill="#FF9500"/>
</svg>
